<?xml version="1.0" encoding="utf-8"?>
<svg viewBox="3.193 2.698 9.895 10.224" fill="none" x="0px" y="0px" xmlns="http://www.w3.org/2000/svg">
 <path d="M8.5 8.29289L8.5 3.5C8.5 3.22386 8.27614 3 8 3C7.72386 3 7.5 3.22386 7.5 3.5L7.5 8.29289L5.85355 6.64645C5.65829 6.45118 5.34171 6.45118 5.14645 6.64645C4.95118 6.84171 4.95118 7.15829 5.14645 7.35355L8 10.2071L10.8536 7.35355C11.0488 7.15829 11.0488 6.84171 10.8536 6.64645C10.6583 6.45119 10.3417 6.45119 10.1464 6.64645L8.5 8.29289Z" fill="black"/>
 <path d="M4 9.5C4.27614 9.5 4.5 9.72386 4.5 10V10.8C4.5 11.1866 4.8134 11.5 5.2 11.5H10.8C11.1866 11.5 11.5 11.1866 11.5 10.8V10C11.5 9.72386 11.7239 9.5 12 9.5C12.2761 9.5 12.5 9.72386 12.5 10V10.8C12.5 11.7389 11.7389 12.5 10.8 12.5H5.2C4.26112 12.5 3.5 11.7389 3.5 10.8V10C3.5 9.72386 3.72386 9.5 4 9.5Z" fill="black"/>
</svg>