<?xml version="1.0" encoding="utf-8"?>
<svg width="92" height="120" viewBox="19.555 20.808 62.189 73.005" xmlns="http://www.w3.org/2000/svg">
 <path style="fill:#dddddd; stroke:none;" d="M35 26C37.017 41.9601 37.8901 56.9306 48.8426 69.8958C51.5755 73.131 55.4419 76.2739 59.0394 78.5093C60.9577 79.7012 63.9088 80.2639 65.1682 82.294C67.1688 85.5189 63.2804 86.6263 61 87L61 91C67.09 90.8575 72.1511 88.2176 78 87C77.8961 83.4822 76.9829 71.8741 73.7415 70.1759C69.2849 67.8411 71.8152 77.6929 66.9383 76.7083C63.396 75.9932 59.7672 72.2348 57.0802 69.9815C47.3664 61.8353 44.9974 51.6054 41.7446 40.0895C40.2941 34.9543 39.0006 31.5042 39 26L35 26z"/>
</svg>