<?xml version="1.0" encoding="utf-8"?>
<svg style="fill:none" id="svg10" version="1.1" viewBox="0 0 66.000061 68" height="68" width="66.000061" xmlns="http://www.w3.org/2000/svg">
 <path style="fill: rgb(8, 0, 65);" id="path2" d="m 34.8255,0 h 3.0927 C 41.8583,0.78625 45.7349,1.785 49.5691,2.975 40.7992,3.485 31.3514,5.71625 25.0599,12.2825 14.1293,24.5225 9.27832,41.6287 12.1804,57.8213 9.25713,57.0775 6.27028,56.4825 3.30461,55.8875 2.1607,53.805 1.05917,51.7225 0,49.5975 V 35.2113 C 2.26662,37.825 4.23667,40.6725 5.86779,43.7325 7.92258,31.9388 14.3623,21.7388 20.2089,11.56 11.5449,17.34 7.56246,26.945 2.77502,35.7425 1.3981,30.1963 5.10519,25.1175 8.04968,20.7613 15.5486,12.2188 23.5559,3.29375 34.8255,0 Z"/>
 <path style="fill: rgb(0, 2, 79);" id="path4" d="m 37.91829,0 h 11.7992 c 7.6472,4.59 16.4171,11.39 16.0993,21.2925 1.4829,13.0475 -6.2491,25.0112 -15.3791,33.5537 C 45.37489,60.3713 39.31639,64.855 32.51659,68 H 15.56989 C 10.76124,64.7913 5.95261,61.1787 3.30469,55.8875 c 2.96567,0.595 5.95253,1.19 8.87583,1.9337 5.52887,3.91 11.92627,8.9463 19.08627,6.0138 14.9978,-5.7375 24.8904,-21.08 27.2841,-36.5712 C 59.44059,18.615 59.67369,6.2475 49.56919,2.975 45.73499,1.785 41.85839,0.78625 37.91829,0 Z"/>
 <path style="fill:#ffffff" id="path6" d="m 49.5692,2.9751 c 10.1045,3.2725 9.8715,15.64 8.9818,24.2887 C 56.1572,42.7551 46.2646,58.0976 31.2668,63.8351 24.1068,66.7676 17.70941,61.7313 12.180553,57.8213 9.27843,41.6288 14.12942,24.5226 25.06,12.2826 31.3515,5.71635 40.7993,3.4851 49.5692,2.9751 Z"/>
 <path style="fill: rgb(17, 0, 139);" id="path8" d="M 22.75087,27.15749 C 30.1862,18.44499 44.9299,16.42624 52.4076,26.15874 51.3484,34.3612 48.1074,41.9687 44.951,49.5337 c -3.1563,0.17 -6.3126,0.3188 -9.4689,0.51 2.076,-2.8475 4.1943,-5.695 6.2914,-8.5212 -3.1351,-1.02 -6.2702,-2.04 -9.3842,-3.145 1.6523,-2.8475 3.3893,-5.6738 5.1264,-8.5 -0.2754,-0.95626 -0.8473,-2.86876 -1.1439,-3.84626 -3.6012,0.61625 -7.2235,1.1475 -10.8459,1.7425 2.83857,5.88626 5.8678,11.70876 7.7531,17.99876 -1.8218,0 -5.48648,0 -7.30825,0.0212 C 28.767,50.575 32.8977,53.9962 38.1724,55.7812 27.09347,56.695 20.10295,46.7075 18.5142,36.805 c 1.08035,0 3.21987,-0.0213 4.30023,-0.0213 -1.33456,-3.06 -3.28343,-6.9275 -0.06356,-9.62621 z"/>
</svg>