<?xml version="1.0" encoding="utf-8"?>
<svg width="78" height="104" viewBox="11.021 29.628 49.662 53.496" xmlns="http://www.w3.org/2000/svg">
 <path style="fill:#dddddd; stroke:none;" d="M36 71L28 70C29.4429 74.6744 38.5019 80.2494 43.3627 76.9676C46.2774 74.9996 48.4647 68.9055 49.216 65.5802C49.8341 62.8449 47.5289 59.1768 44.5988 61.6373C43.2535 62.767 43.2504 64.431 43 66C34.4307 63.2947 35.5999 49.1968 36.0895 42C36.2477 39.6748 37.6739 35.6743 35.9614 33.662C32.1081 29.1341 29.1031 39.8017 29.0185 42C28.7749 48.3356 29.3902 54.7167 31.5448 60.7153C32.8528 64.3569 35.1577 67.1209 36 71z"/>
</svg>