<?xml version="1.0" encoding="utf-8"?>
<svg width="1024" height="1024" viewBox="89.907 114.183 874.071 859.541" xmlns="http://www.w3.org/2000/svg">
 <ellipse style="stroke: rgb(255, 255, 255); fill: rgb(255, 255, 255);" cx="527.727" cy="543.258" rx="428.047" ry="418"/>
 <path style="fill:#122d3d; stroke:none;" d="M399 542C365.707 505.829 357.244 450.052 366.807 403C369.605 389.235 373.201 375.14 378.192 362C379.969 357.322 385.605 348.182 384.211 343.185C383.356 340.118 379.504 338.586 377 337.15C369.531 332.869 361.84 329.229 354 325.694C322.235 311.375 285.695 302.738 251 300C251 330.104 258.362 361.173 266.579 390C289.258 469.562 333.023 546.063 400 596.373C439.461 626.015 485.977 646.151 536 643.961C581.835 641.953 625.155 618.101 660 590C723.227 539.01 764.154 463.529 785.151 386C792.754 357.928 799 329.189 799 300C784.331 300.121 769.137 303.798 755 307.42C723.571 315.471 694.411 326.245 666 342C666.995 348.643 670.201 354.757 672.576 361C676.184 370.486 679.585 380.121 681.961 390C694.352 441.511 689.243 501.536 652 542C657.132 514.36 655.828 484.815 653.17 457C651.053 434.851 648.546 412.662 643.105 391C631.564 345.05 611.238 300.932 585.947 261C573.389 241.172 558.938 222.693 543.576 205C539.66 200.491 535.428 196.072 531 192.059C529.364 190.577 527.419 188.636 525 188.921C522.593 189.205 520.641 191.453 519 193.019C514.977 196.86 510.954 200.818 507.286 205C492.438 221.928 479.105 240.252 466.667 259C412.23 341.06 386.643 444.227 399 542z"/>
 <path style="fill:#f7ffff; stroke:none;" d="M525 305C496.221 331.508 469.144 358.701 448.053 392C432.882 415.953 419.983 442.575 416.289 471C411.147 510.575 421.945 553.087 452.015 580.829C486.184 612.355 539.651 619.551 580 595.547C605.835 580.178 623.8 554.608 632 526C638.562 503.109 636.684 478.026 632.069 455C626.693 428.175 611.734 403.115 596.28 381C583.138 362.195 568.2 345.2 552 329C543.561 320.561 535.182 311.369 525 305z"/>
 <path style="fill:#122d3d; stroke:none;" d="M524.001 357.176C519.821 358.623 516.787 363.897 513.911 367C505.643 375.922 497.936 385.269 490.627 395C469.732 422.816 449.521 458.992 451.104 495C451.781 510.387 455.71 525.933 464.09 539C482.967 568.434 519.565 579.314 552 568.163C561.167 565.011 569.133 559.79 576 552.996C580.963 548.086 585.251 543.086 588.713 537C612.707 494.821 594.653 445.399 569.997 408C560.495 393.587 549.723 380.774 538.17 368C535.141 364.652 529.477 355.28 524.001 357.176z"/>
 <path style="fill:#f7ffff; stroke:none;" d="M528 414C525.566 416.436 520.207 420.198 520.207 424C520.207 427.802 525.566 431.564 528 434C530.969 431.908 536.793 428.134 536.793 424C536.793 419.866 530.969 416.092 528 414M551 426C540.125 434.765 528.304 443.287 514 437.12C509.39 435.132 506.249 431.418 502 429C506.087 446.198 524.461 455.412 541 450.43C548.457 448.183 553.77 443.333 560 439C558.586 433.914 554.739 429.663 551 426M476 459C477.513 462.579 480.788 469.344 485.09 470.119C487.899 470.625 490.718 468.144 493 466.875C496.895 464.709 502.375 461.905 506.996 462.746C512.911 463.822 514.629 469.602 510.768 473.892C506.615 478.506 499.814 479.797 494 481C494.906 486.083 497.414 490.569 500 495C504.634 493.736 509.108 491.315 513.996 492.808C521.704 495.162 524.511 504.446 520.121 510.96C516.534 516.282 509.385 519.8 503 519.82C493.147 519.852 485.269 512.647 480.029 504.999C476.682 500.115 475.568 493.523 469 493C469.981 515.488 487.192 539.361 512 535.699C534.905 532.318 540.31 506.69 526 491C534.244 492.525 543.317 491.108 547.722 482.996C550.946 477.06 553.322 463.127 562.996 464.842C574.527 466.886 572.793 483.491 569.001 491C562.529 503.815 551.461 504.318 540 499C544.239 516.847 563.724 524.679 576.316 508.96C586.394 496.379 584.697 475.012 574.671 463.004C569.069 456.294 561.004 451.432 552 453.39C539.551 456.098 538.788 468.78 531.62 476.895C527.741 481.288 522.66 482.867 517 483C519.177 479.045 522.854 476.794 523.667 471.999C526.018 458.127 512.035 446.624 499 448.184C490.537 449.198 482.887 454.358 476 459z"/>
 <path style="fill:#122d3d; stroke:none;" d="M468 690L468 711C468 713.972 468.632 717.977 466.972 720.62C464.972 723.807 460.244 725.263 457 726.766C447.528 731.154 437.232 734.223 427 736.197C384.413 744.412 341.957 735.718 302 720.189C290.568 715.746 279.805 709.963 269 704.22C265.499 702.359 260.159 697.503 256 698.022C249.81 698.793 243.589 709.497 240.004 714C230.514 725.921 222.247 738.766 214.719 752C210.573 759.29 205.953 766.776 204 775C220.317 784.523 238.955 789.794 257 794.909C310.236 809.998 371.921 808.07 422 783.031C442.149 772.956 459.829 758.319 475.17 741.961C486.986 729.36 496.972 715.178 505.231 700C508.609 693.792 512.122 687.866 514 681C495.274 680.845 475.654 675.551 458 669.667C401.376 650.792 354.253 612.459 316.435 567C299.651 546.824 284.981 524.469 273.247 501C270.06 494.626 265.963 477.775 257.985 477.059C248.626 476.218 239.263 477.842 230 478.834C206.577 481.342 183.329 486.863 161 494.333C153.938 496.696 146.839 499.204 140 502.15C137.629 503.172 133.492 504.258 132.878 507.214C132.397 509.531 134.227 512.092 135.285 514C138.112 519.1 141.21 524.068 144.319 529C157.151 549.363 171.486 568.538 186.92 587C237.735 647.786 315.4 699.986 397 701.985C421.278 702.58 445.045 697.467 468 690M538 681C539.378 688.73 544.212 696.313 548.201 703C555.828 715.788 563.931 727.751 573.718 739C614.63 786.021 680.12 809.723 742 803.83C779.029 800.304 812.904 789.195 847 775C840.873 753.731 824.983 732.272 811.575 715C807.849 710.2 801.311 699.089 794.999 697.828C790.765 696.982 785.395 701.959 782 704C771.854 710.1 761.132 715.961 750 720.047C709.511 734.907 668.089 744.196 625 736.424C614.441 734.52 603.763 731.807 594 727.218C590.7 725.667 586.007 723.936 584.028 720.671C582.391 717.972 583 714.014 583 711L583 690C592.781 692.263 602.121 696.185 612 698.193C629.637 701.778 649.053 702.14 667 700.911C747.351 695.408 822.143 639.819 870.8 579C883.139 563.577 894.554 547.735 905.05 531C909.952 523.184 916.382 514.899 919 506C888.469 493.289 857.947 483.815 825 479.715C816.356 478.64 807.731 477.013 799 477C796.284 476.996 792.774 476.473 790.225 477.603C787.671 478.736 786.761 481.634 785.72 484.001C783.193 489.746 780.561 495.385 777.753 501C767.737 521.032 756.37 540.296 742.576 558C700.455 612.062 644.152 659.068 576 674.424C563.412 677.26 551.017 680.892 538 681M525 739C515.576 754.026 503.834 768.055 491.196 780.486C487.085 784.53 475.742 790.919 475.242 797.004C474.872 801.497 480.021 807.448 482.344 811C490.675 823.739 500.63 836.286 512.015 846.424C515.516 849.542 521.657 858.388 527 856.914C533.103 855.229 538.705 847.295 543 843C556.648 829.351 570.467 812.998 578 795C564.625 785.384 552.842 773.734 542.424 761C536.669 753.965 531.988 744.775 525 739z"/>
</svg>